<svg version="1.2" xmlns="http://www.w3.org/2000/svg" viewBox="0 0 1370 1370" width="1370" height="1370"><defs><clipPath clipPathUnits="userSpaceOnUse" id="cp1"><path d="m685 0c378.31 0 685 306.69 685 685 0 378.31-306.69 685-685 685-378.31 0-685-306.69-685-685 0-378.31 306.69-685 685-685z"/></clipPath></defs><style>.a{fill:#fff}.b{fill:#020202}</style><g clip-path="url(#cp1)"><path fill-rule="evenodd" class="a" d="m685 0c378.3 0 685 306.7 685 685 0 378.3-306.7 685-685 685-378.3 0-685-306.7-685-685 0-378.3 306.7-685 685-685z"/><path class="b" d="m1058.4 222.3c16.7-28.1 47.3 16.7 59.7 29.9 63.9 83.2 46.2 197.9-42 255.8 16.3 28.8 36 66.3 32.6 100.1-11.9-12.3-25-23.8-40.5-31.4 22 46.6 33.2 106.7 6.3 153.5-5.1-16.2-10.5-34.6-22.1-47.1 0.7 27.8-4.3 56.1-16.1 81.3 47.3 32.6 92 71.7 121.1 122.1-11.4-3.1-22.8-7.1-34.7-7.8 37.2 38.8 71.7 84.6 85.3 137.3-11.8-7-21.2-18.2-34-23.1 27.1 54.5 44 116.8 32.2 177.8-2.9-5.1-5.8-10.2-8.9-15.2-3.4-5.5-2.4 4.8-6.3-0.5 0.5 8.4-4 1.4-4.3 10.2-1.8 56.3-21.1 117.3-77.8 137.8-20.3 9-61.1 21.7-66.1-10.6-2.2-26.8 32.5-45.8 10.9-74.3-8.1 8.3-10.1 20.4-18.1 28.8-12.1 15.8-37.5 8.6-41.7-10.1-3-11-1.3-22.6 1.6-33.5 27.9-75.6 33.4-167-13.5-236.2 16.9 73.9 14.4 157.6-27.6 222.9 7.1 35.6 9.1 74.1-4.9 108.3-3.1-7.9-8.2-14.8-13.2-21.6-2.5 17-5 34-10 50.6 20.2 10.8 41.6 20.6 58.3 36.4 22.8 23.7 11.3 61.8-24.2 58.3 5.4-20.6-10.5-44.7-32.4-45.6 32.2 32.6 7.2 67.3-35.1 56.6 6.8-24-8.2-51-34-53.2 14.6 12 23.5 37.4 6.6 51.2-7.9 6.1-18.2 6.4-27.7 5.8-15.3-1.4-30.6-0.6-46-0.8-67.8 4.7-56.1-34.2-56.8-84.7-2.7-21.7-1.9-49.8-18.4-65.8-34.4 0.8-69.4-2.8-101.2-17 10.3 16.9 29.8 25.6 47.9 31.7-10.9 32.4-8.8 67-8.9 100.7 1 18.7-14.8 34.3-33.4 34.3-34.4 1.5-69.2 0.6-103.7 1.5-29.6-5.7-25.6-40-7.3-56.5-25 2.5-40.5 29.4-33 52.7-42.4 11.3-67.3-23.1-35.8-56.5-22.6 0.9-37.3 25.4-32.2 46.4-22.8 3.1-42.9-20.2-34.1-42.1 10.9-28.6 44.5-38.1 68.3-53.5-4-16.7-7.3-33.5-9.6-50.6-5.8 6.3-10 14.1-13.6 21.8-13.6-34.7-11.8-72.7-3.8-108.4-43-65.2-45-149-28.6-223.2-43.5 66.5-43 153.5-16.5 226.4 4.1 13.7 8.5 28.4 4.8 42.7-3.5 17.5-27 27.3-40 13.2-9.6-8.3-11.1-22.2-20.2-31-25 33.6 28.7 57.3 6 87.2-16.5 15.5-40.5 5.7-58.6-1.6-58.1-18.8-79.6-82.9-80.1-140.2-0.1-8-3.7-2.9-3-10.5-4.3 4.6-4-3.1-7.3 2.3-3.1 5-6 10.3-9 15.4-11.3-60.5 4.5-123.6 32.5-177.5-12.8 5-22.4 16-34.3 23 13.2-53.2 48.1-98.9 85.5-137.8-11.7 1-23 4.5-34.3 8 27.7-51.2 73.5-89.8 120.9-122.3-12.5-24.6-17.5-53.1-16.6-80.6-12.1 11.6-17.2 30.7-23.2 46.3-24.7-47.8-15.5-106.5 7.2-153.2-15.6 8.2-29.6 19-41.1 32.4-2-36.1 15.3-70.9 33-101.4-82.6-52.2-105.6-165.5-48.7-245.7 13.8-18.3 28.1-40.9 50.4-48.8 15.8-1.2 19.7 15 14.9 27.3-18 60.3 11.3 120.2 76.2 129.4 48-40.6 106.5-66.3 167.5-80.3 4.8-1.2 10.2-1.1 13.9-4.8 12.8-11.8 25.5-23.9 40.5-33 23.1-14.9 49.2-24.2 75.7-31-10 16.4-21.5 33.9-22.4 54 47-32.2 109-47.3 163-24.4-19.1 4.9-36.2 17.2-47.4 33.4 75 8.5 148.8 36.5 206.2 86.5 48.9-7 85.7-48.5 81.5-98.7 0.5-16.7-9.9-32.9-6.2-49.4m-275.7 97.4c18.4 15.2 28.7 38.7 29.5 62.3-16.8-34.4-56.3-53-92.9-56.4 22.3 14.3 44.2 35.8 47.9 63-16.9-18-40.7-27.9-63.8-35.4-12.4-4.4-25.1-9.6-34.4-19.3-4.2 27.7 8.9 55.5 29 74.2-23.7-6.3-46.8-19.8-59.8-41.1-1.2 30.1 9.8 58.7 25.3 84-38.3-18.5-75.2-50-83.8-93.4-16 16-24.8 38-26.2 60.5-10.9-22.6-18.8-48.7-10.2-73.5-18.2 3.5-33.7 14.9-45.1 29.1-0.9-14.2 5.9-27.3 12.8-39.1-14.5 4.4-28.1 11.7-41.6 18.6-12.3 28.8-3 66.6 17.3 90.3 2.1-16.9 10.4-32.1 23.4-42.9 1.6 40.9 38.3 72.6 74.8 85.6-6.6-16.8-7.8-35.7-2.9-53 32.1 56.6 97.1 86.5 159.9 92.7-19.3-25.3-30.7-57.6-27.7-89.7 19.6 10.9 29.2 32 40.6 50.2 7-21.4 7.2-43.7 3.6-65.6-0.9-1.1-1.9-2.1-2.3-3.5 25.2 17.5 36.1 51.4 27 80.7 38.1-16.5 67-56.1 63.5-98.7 22.3 10.5 34.2 34.1 37.2 57.7 15.3-21.8 22-52.6 5.6-75.6 22.5-1.4 42.8 9.3 62.5 18.3-33.1-57.8-107.3-75-169.2-80z"/></g></svg>
